<svg width="28" height="28" viewBox="0 0 28 28" fill="none" xmlns="http://www.w3.org/2000/svg">
<path d="M0.409826 20.6633H18.6453V6.30774C18.6453 4.85305 17.466 3.67383 16.0113 3.67383H3.04369C1.589 3.67383 0.409771 4.85305 0.409771 6.30774V20.6633H0.409826Z" fill="#C7CFD3"/>
<path d="M23.2314 10.8586H19.8799C19.1981 10.8586 18.6453 11.4705 18.6453 12.2252V20.645H27.6274V16.4997C27.6274 16.0149 27.4818 15.5439 27.2133 15.1609L24.7905 11.704C24.4168 11.1707 23.8413 10.8586 23.2314 10.8586Z" fill="#FF473E"/>
<path d="M27.1542 22.9751H0.751583C0.349411 22.9751 0.0234184 22.6492 0.0234184 22.247V21.0121C0.0234051 20.9639 0.0328884 20.9161 0.0513306 20.8716C0.0697708 20.8271 0.0968094 20.7866 0.130896 20.7525C0.164984 20.7184 0.205454 20.6914 0.249994 20.6729C0.294535 20.6545 0.342274 20.645 0.390482 20.645H27.6222C27.6912 20.645 27.7573 20.6724 27.8061 20.7212C27.8549 20.7699 27.8823 20.8361 27.8823 20.9051V22.2469C27.8823 22.6491 27.5563 22.9751 27.1542 22.9751Z" fill="#2B3B47"/>
<path d="M25.936 15.4713L23.8115 12.442C23.7621 12.3714 23.6859 12.3301 23.6053 12.3301H21.094C20.9496 12.3301 20.8327 12.46 20.8327 12.6201V15.6495C20.8327 15.8097 20.9496 15.9396 21.094 15.9396H25.7298C25.9473 15.9396 26.0696 15.6618 25.936 15.4713Z" fill="#76DFFF"/>
<path d="M26.9041 19.2864H27.6274V17.3689H26.9041C26.5649 17.3689 26.29 17.6438 26.29 17.983V18.6722C26.29 19.0114 26.5649 19.2864 26.9041 19.2864Z" fill="#FFD469"/>
<path d="M20.9622 23.6389C20.9622 24.8544 21.9476 25.8398 23.1631 25.8398C24.3787 25.8398 25.364 24.8544 25.364 23.6389C25.364 22.4233 24.3787 21.438 23.1631 21.438C21.9476 21.438 20.9622 22.4234 20.9622 23.6389ZM12.5996 21.438C13.8152 21.438 14.8005 22.4234 14.8005 23.6389C14.8005 24.8545 13.8152 25.8398 12.5996 25.8398C11.3841 25.8398 10.3987 24.8545 10.3987 23.6389C10.3987 22.4234 11.3841 21.438 12.5996 21.438ZM6.45548 21.438C7.67102 21.438 8.65638 22.4234 8.65638 23.6389C8.65638 24.8545 7.67102 25.8398 6.45548 25.8398C5.23994 25.8398 4.25459 24.8545 4.25459 23.6389C4.25459 22.4234 5.23994 21.438 6.45548 21.438Z" fill="#597B91"/>
<path d="M21.7206 23.6388C21.7206 24.4355 22.3665 25.0814 23.1632 25.0814C23.9599 25.0814 24.6057 24.4355 24.6057 23.6388C24.6057 22.8421 23.9599 22.1963 23.1632 22.1963C22.3665 22.1963 21.7206 22.8421 21.7206 23.6388ZM12.5997 22.1963C13.3964 22.1963 14.0422 22.8422 14.0422 23.6389C14.0422 24.4356 13.3964 25.0814 12.5997 25.0814C11.803 25.0814 11.1571 24.4356 11.1571 23.6389C11.1571 22.8422 11.803 22.1963 12.5997 22.1963ZM6.45553 22.1963C7.25222 22.1963 7.89808 22.8422 7.89808 23.6389C7.89808 24.4356 7.25222 25.0814 6.45553 25.0814C5.65885 25.0814 5.01299 24.4356 5.01299 23.6389C5.01299 22.8422 5.65885 22.1963 6.45553 22.1963Z" fill="#2B3B47"/>
</svg>
