<svg width="28" height="28" viewBox="0 0 28 28" fill="none" xmlns="http://www.w3.org/2000/svg">
<path d="M9.45008 15.5633L12.7517 12.2616L5.53008 5.05162C4.97008 4.49162 4.00175 4.64328 3.65175 5.36662C2.82342 7.10495 3.12675 9.23995 4.56175 10.6866L9.45008 15.5633ZM17.3601 13.4516C19.1451 14.2799 21.6534 13.6966 23.5084 11.8416C25.7367 9.61328 26.1684 6.41662 24.4534 4.70162C22.7501 2.99828 19.5534 3.41828 17.3134 5.64662C15.4584 7.50162 14.8751 10.0099 15.7034 11.7949L5.13342 22.365C4.91528 22.5831 4.79273 22.879 4.79273 23.1875C4.79273 23.4959 4.91528 23.7918 5.13342 24.01C5.35156 24.2281 5.64742 24.3506 5.95592 24.3506C6.26441 24.3506 6.56028 24.2281 6.77842 24.01L14.0001 16.8116L21.2101 24.0216C21.3181 24.1296 21.4463 24.2153 21.5874 24.2738C21.7286 24.3322 21.8798 24.3623 22.0326 24.3623C22.1853 24.3623 22.3366 24.3322 22.4777 24.2738C22.6188 24.2153 22.7471 24.1296 22.8551 24.0216C22.9631 23.9136 23.0488 23.7854 23.1072 23.6442C23.1657 23.5031 23.1958 23.3519 23.1958 23.1991C23.1958 23.0464 23.1657 22.8951 23.1072 22.754C23.0488 22.6129 22.9631 22.4846 22.8551 22.3766L15.6451 15.1666L17.3601 13.4516Z" fill="#512200"/>
</svg>
