<svg width="28" height="28" viewBox="0 0 28 28" fill="none" xmlns="http://www.w3.org/2000/svg">
<path d="M5.56838 15.2548L3.16388 17.3329C2.97603 17.4693 2.74166 17.5256 2.51234 17.4892C2.28301 17.4529 2.07752 17.3269 1.94107 17.1391C1.80462 16.9512 1.74838 16.7168 1.78472 16.4875C1.82107 16.2582 1.94703 16.0527 2.13488 15.9163L5.16938 13.2939C5.20555 13.2676 5.24288 13.2443 5.28138 13.2239C5.46776 8.79025 9.30988 5.25 14.0244 5.25C18.7371 5.25 22.5801 8.78938 22.7674 13.223C22.807 13.2434 22.8453 13.2673 22.882 13.2948L25.9139 15.9171C26.1016 16.0536 26.2275 16.259 26.2637 16.4883C26.3 16.7175 26.2437 16.9518 26.1073 17.1395C25.9708 17.3272 25.7654 17.4531 25.5361 17.4893C25.3069 17.5256 25.0726 17.4693 24.8849 17.3329L22.4786 15.2504L20.5799 25.8598L20.5755 25.8799C20.446 26.4451 20.1564 26.775 19.8554 26.9517C19.6986 27.043 19.5246 27.1008 19.3444 27.1215H8.70438C8.52157 27.1024 8.34479 27.0452 8.18551 26.9535C7.87663 26.7759 7.58176 26.4408 7.46976 25.8668C7.37963 25.4091 6.83188 22.3484 6.30776 19.4092C6.04526 17.9392 5.78888 16.4955 5.59813 15.421L5.56838 15.2548Z" fill="#9B9B9B"/>
<path d="M6.45915 15.2688L6.2334 14H21.8136L19.7206 25.6944C19.6419 26.0269 19.4966 26.1476 19.4126 26.1966C19.3667 26.2233 19.3163 26.2414 19.2639 26.25H8.78315L8.75165 26.2447C8.7058 26.2352 8.66178 26.2184 8.62127 26.1949C8.5364 26.1468 8.39377 26.0286 8.32815 25.6979C8.24065 25.2507 7.69465 22.2014 7.16965 19.2561L6.45915 15.2688Z" fill="white"/>
<path d="M14.2431 15.3125C14.2431 15.2545 14.2201 15.1988 14.179 15.1578C14.138 15.1168 14.0824 15.0938 14.0244 15.0938C13.9663 15.0938 13.9107 15.1168 13.8697 15.1578C13.8287 15.1988 13.8056 15.2545 13.8056 15.3125V15.9688H12.3269C12.256 15.9688 12.2175 16.0632 12.2175 16.0632L11.8421 17.1168C11.8185 17.1754 11.8421 17.2812 11.9786 17.2812H12.4931V18.1562H11.3014C11.1876 18.1562 11.1264 18.2814 11.1264 18.2814L10.5244 19.6875C10.4859 19.7645 10.5244 19.9062 10.7431 19.9062H11.6181V21.875H10.9619C10.8458 21.875 10.7346 21.9211 10.6525 22.0031C10.5705 22.0852 10.5244 22.1965 10.5244 22.3125C10.5244 22.4285 10.5705 22.5398 10.6525 22.6219C10.7346 22.7039 10.8458 22.75 10.9619 22.75H17.0869C17.2029 22.75 17.3142 22.7039 17.3962 22.6219C17.4783 22.5398 17.5244 22.4285 17.5244 22.3125C17.5244 22.1965 17.4783 22.0852 17.3962 22.0031C17.3142 21.9211 17.2029 21.875 17.0869 21.875H16.4306V19.9062H17.3056C17.5244 19.9062 17.5559 19.7689 17.5244 19.6875L16.9215 18.2814C16.9215 18.2814 16.8742 18.1562 16.7517 18.1562H15.5556V17.2812H16.0692C16.2049 17.2812 16.225 17.178 16.2049 17.1176L15.8295 16.0632C15.8295 16.0632 15.7997 15.9688 15.7245 15.9688H14.2431V15.3125ZM15.9931 21.875H12.0556V19.9062H15.9931V21.875ZM12.9306 18.1562V17.2812H15.1181V18.1562H12.9306Z" fill="#F8312F"/>
</svg>
